<svg xmlns="http://www.w3.org/2000/svg" viewBox="0 0 220.66 157.58"><path d="M0,104.81H10.6a30.44,30.44,0,0,1,7.31.86A17,17,0,0,1,24,108.46a13.6,13.6,0,0,1,4.09,5,16.7,16.7,0,0,1,1.52,7.47,15.22,15.22,0,0,1-1.47,6.86,14.81,14.81,0,0,1-4,5,17.51,17.51,0,0,1-5.75,3.05,22.23,22.23,0,0,1-6.84,1H0Zm7.06,25.54h3.67a19.28,19.28,0,0,0,4.55-.5,9.69,9.69,0,0,0,3.65-1.65,8,8,0,0,0,2.42-3,10.75,10.75,0,0,0,.88-4.6,9,9,0,0,0-.88-4.1A8.13,8.13,0,0,0,19,113.6a10.25,10.25,0,0,0-3.51-1.7,15.43,15.43,0,0,0-4.23-.57H7.06Z"/><path d="M34.64,114.87h6.79v3.53h.1a8.28,8.28,0,0,1,2.58-3.06,6.5,6.5,0,0,1,3.75-1c.4,0,.79,0,1.18.05a5.9,5.9,0,0,1,1.09.18v6.2a11,11,0,0,0-1.43-.34,10,10,0,0,0-1.47-.11,7.27,7.27,0,0,0-3.08.54,4.17,4.17,0,0,0-1.74,1.52,5.74,5.74,0,0,0-.79,2.33,22.79,22.79,0,0,0-.19,3v9.19H34.64Z"/><path d="M52.57,125.87a11.58,11.58,0,0,1,1-4.75,11.07,11.07,0,0,1,2.61-3.65A11.47,11.47,0,0,1,60,115.14a14.34,14.34,0,0,1,9.56,0,11.47,11.47,0,0,1,3.89,2.33,10.93,10.93,0,0,1,2.61,3.65,12.35,12.35,0,0,1,0,9.5,10.93,10.93,0,0,1-2.61,3.65,11.47,11.47,0,0,1-3.89,2.33,14.34,14.34,0,0,1-9.56,0,11.47,11.47,0,0,1-3.89-2.33,11.07,11.07,0,0,1-2.61-3.65A11.54,11.54,0,0,1,52.57,125.87Zm6.8,0a5.7,5.7,0,0,0,1.42,4,6,6,0,0,0,8,0,6.39,6.39,0,0,0,0-8.06,6,6,0,0,0-8,0A5.7,5.7,0,0,0,59.37,125.87Z"/><path d="M82.14,114.87h6.53v3h.09a5.47,5.47,0,0,1,.9-1.26,6.45,6.45,0,0,1,1.41-1.14,8,8,0,0,1,1.85-.81,7.83,7.83,0,0,1,2.27-.32,9.43,9.43,0,0,1,4.16.79,6.08,6.08,0,0,1,2.47,2.2,8.87,8.87,0,0,1,1.2,3.31,25.24,25.24,0,0,1,.32,4.12v12.13h-6.8V126.1c0-.64,0-1.29-.06-2a6.23,6.23,0,0,0-.41-1.88,2.91,2.91,0,0,0-3.06-2,4.2,4.2,0,0,0-2.13.48A3.26,3.26,0,0,0,89.64,122a5.15,5.15,0,0,0-.57,1.79,15.64,15.64,0,0,0-.13,2.09v11h-6.8Z"/><path d="M130.1,133.07a10.91,10.91,0,0,1-4.12,3.22,12.41,12.41,0,0,1-5.16,1.13,13.68,13.68,0,0,1-4.78-.82,11.51,11.51,0,0,1-3.9-2.33,10.9,10.9,0,0,1-2.6-3.65,12.35,12.35,0,0,1,0-9.5,10.9,10.9,0,0,1,2.6-3.65,11.51,11.51,0,0,1,3.9-2.33,13.68,13.68,0,0,1,4.78-.82,10.7,10.7,0,0,1,4.27.82,8.94,8.94,0,0,1,3.27,2.33,10.74,10.74,0,0,1,2.06,3.65,14.76,14.76,0,0,1,.72,4.75V128H115.38a5.34,5.34,0,0,0,1.77,3.1,5,5,0,0,0,3.35,1.15,5.08,5.08,0,0,0,2.83-.74,7.51,7.51,0,0,0,2-1.93Zm-5.75-9.69a3.93,3.93,0,0,0-1.13-2.94,4,4,0,0,0-3-1.23,4.94,4.94,0,0,0-2,.37,5,5,0,0,0-1.47.92,4,4,0,0,0-1,1.32,4.27,4.27,0,0,0-.39,1.56Z"/><path d="M148.85,121.34a4.8,4.8,0,0,0-3.94-1.85,3.71,3.71,0,0,0-1.68.4,1.44,1.44,0,0,0-.81,1.41,1.26,1.26,0,0,0,.83,1.2,11.93,11.93,0,0,0,2.13.68l2.76.63a10.66,10.66,0,0,1,2.77,1.06,6.24,6.24,0,0,1,2.12,2,5.87,5.87,0,0,1,.84,3.33,6.15,6.15,0,0,1-.93,3.51,7.19,7.19,0,0,1-2.37,2.22,10.38,10.38,0,0,1-3.26,1.18,20,20,0,0,1-3.58.34,17.26,17.26,0,0,1-4.67-.66,8.7,8.7,0,0,1-4-2.33l4.12-4.58a6.64,6.64,0,0,0,2.11,1.79,5.62,5.62,0,0,0,2.69.61,6.52,6.52,0,0,0,2.13-.33,1.27,1.27,0,0,0,1-1.25,1.39,1.39,0,0,0-.84-1.29,9.23,9.23,0,0,0-2.13-.73l-2.76-.63a11.26,11.26,0,0,1-2.76-1,5.76,5.76,0,0,1-2.13-1.92,5.87,5.87,0,0,1-.84-3.33,6.67,6.67,0,0,1,.8-3.35,6.8,6.8,0,0,1,2.08-2.31,9,9,0,0,1,3-1.34,14,14,0,0,1,3.4-.43,15.65,15.65,0,0,1,4.39.64,8.06,8.06,0,0,1,3.76,2.26Z"/><path d="M173.48,120.3h-6v7.34a13.91,13.91,0,0,0,.09,1.65,3.32,3.32,0,0,0,.41,1.29,2.12,2.12,0,0,0,1,.84,4.46,4.46,0,0,0,1.75.29,12.64,12.64,0,0,0,1.42-.11,2.47,2.47,0,0,0,1.34-.52v5.66a10.26,10.26,0,0,1-2.36.54,21.7,21.7,0,0,1-2.39.14,13.08,13.08,0,0,1-3.17-.36A7.31,7.31,0,0,1,163,135.9a5.45,5.45,0,0,1-1.7-2.06,7,7,0,0,1-.61-3.08V120.3h-4.35v-5.43h4.35v-6.52h6.79v6.52h6Z"/><path d="M198.88,133.07a10.84,10.84,0,0,1-4.12,3.22,12.41,12.41,0,0,1-5.16,1.13,13.76,13.76,0,0,1-4.78-.82,11.47,11.47,0,0,1-3.89-2.33,11.07,11.07,0,0,1-2.61-3.65,12.35,12.35,0,0,1,0-9.5,11.07,11.07,0,0,1,2.61-3.65,11.47,11.47,0,0,1,3.89-2.33,13.76,13.76,0,0,1,4.78-.82,10.75,10.75,0,0,1,4.28.82,8.9,8.9,0,0,1,3.26,2.33,10.58,10.58,0,0,1,2.06,3.65,14.75,14.75,0,0,1,.73,4.75V128H184.17a5.38,5.38,0,0,0,1.76,3.1,5,5,0,0,0,3.35,1.15,5.08,5.08,0,0,0,2.83-.74,7.69,7.69,0,0,0,2-1.93Zm-5.75-9.69a3.93,3.93,0,0,0-1.13-2.94,4,4,0,0,0-3-1.23,5,5,0,0,0-2,.37,5.17,5.17,0,0,0-1.47.92,4.12,4.12,0,0,0-.95,1.32,4.26,4.26,0,0,0-.38,1.56Z"/><path d="M205.18,114.87H212v3.53h.09a8.47,8.47,0,0,1,2.58-3.06,6.53,6.53,0,0,1,3.76-1c.39,0,.79,0,1.18.05a5.79,5.79,0,0,1,1.08.18v6.2a10.82,10.82,0,0,0-1.42-.34,10,10,0,0,0-1.47-.11,7.24,7.24,0,0,0-3.08.54,4.14,4.14,0,0,0-1.75,1.52,5.89,5.89,0,0,0-.79,2.33,22.88,22.88,0,0,0-.18,3v9.19h-6.79Z"/><path d="M96.91,35.8A14.65,14.65,0,0,0,68.09,40l-3.84,1a13.51,13.51,0,0,1-2.73.44l-1.65.11.64,1.52a16.4,16.4,0,0,1,.8,2.33,14.47,14.47,0,0,1,.43,2.26l.18,1.68,1.5-.75a13.87,13.87,0,0,1,2.61-1l3.83-1a14.56,14.56,0,0,0,12.84,7.7,14.83,14.83,0,0,0,3.83-.51,14.68,14.68,0,0,0,10.38-18ZM79.26,44.06a3.41,3.41,0,0,0,.82-6.27,3.34,3.34,0,0,0-2.58-.34l-2.43.65A7.42,7.42,0,0,1,77,34.3,7.83,7.83,0,0,1,88.88,44.45h0a7.83,7.83,0,0,1-8.48,2.6,7.49,7.49,0,0,1-3.55-2.34Z"/><path d="M33.8,48.88a12.94,12.94,0,0,1-2.4.9l-3.86,1A14.49,14.49,0,0,0,22,45.11,14.68,14.68,0,0,0,7.33,70.53a14.52,14.52,0,0,0,7.31,2A14.83,14.83,0,0,0,18.47,72,14.6,14.6,0,0,0,29.32,57.45l3.8-1.05A12.74,12.74,0,0,1,35.7,56l1.43-.09-2.05-7.64ZM18.15,53.36a3.37,3.37,0,0,0-2.09,1.58,3.42,3.42,0,0,0,3.84,5l2.44-.65a7.52,7.52,0,0,1-1.91,3.8A7.83,7.83,0,1,1,14.67,50a8,8,0,0,1,2.35.36,7.57,7.57,0,0,1,3.55,2.34Zm13.5-2.43Z"/><path d="M65.16,70a14.42,14.42,0,0,0-7.72-1.92l-1-3.84A14,14,0,0,1,56,62l-.16-1.78-1.57.86a18.23,18.23,0,0,1-4,1.62l-1.54.41.53,1.24a11.88,11.88,0,0,1,.6,1.74l1,3.81a14.53,14.53,0,0,0-5.71,5.53,14.68,14.68,0,1,0,20-5.38ZM59.85,90.3A7.78,7.78,0,0,1,53,88.88a7.86,7.86,0,0,1-2.61-8.49,7.42,7.42,0,0,1,2.35-3.54l.65,2.42A3.42,3.42,0,1,0,60,77.5l-.65-2.42A7.4,7.4,0,0,1,63.11,77a7.87,7.87,0,0,1,2,8.66h0A7.79,7.79,0,0,1,59.85,90.3Z"/><path d="M32.25,27.39A14.56,14.56,0,0,0,40,29.32l1,3.81A13.3,13.3,0,0,1,41.34,35l.16,1.32L42.79,36a23.43,23.43,0,0,1,4.61-.71l1.74-.09-.74-1.58a13.3,13.3,0,0,1-.8-2.2l-1-3.82A14.65,14.65,0,0,0,46.92,2,14.67,14.67,0,1,0,32.25,27.39Zm12.46-6.82-.65-2.42a3.38,3.38,0,0,0-1.58-2.08,3.46,3.46,0,0,0-2.61-.35,3.42,3.42,0,0,0-2.42,4.19l.65,2.44a7.52,7.52,0,0,1-3.8-1.91A7.82,7.82,0,0,1,37.55,7.12a8,8,0,0,1,2.05-.27A7.82,7.82,0,0,1,47.05,17,7.48,7.48,0,0,1,44.71,20.57Z"/><path d="M54.27,58.78a14.12,14.12,0,0,0,1.95-1.51,13.39,13.39,0,0,0,1.56-1.76,11.07,11.07,0,0,0,1.87-4.21l.16-.28-.07-.21a11.69,11.69,0,0,0-.31-4.91,12.76,12.76,0,0,0-2.2-4.64,3.71,3.71,0,0,0-.33-.4,10.36,10.36,0,0,0-6.15-3.47,13.75,13.75,0,0,0-2.67-.22,21.67,21.67,0,0,0-5.17.75l-8,2.15,6.17,23,8.61-2.31A16.47,16.47,0,0,0,54.27,58.78Zm-1.72-8.62A4.13,4.13,0,0,1,51.74,52,5.32,5.32,0,0,1,50,53.43a11.84,11.84,0,0,1-2.6,1l-1.25.33-2.7-10.05,1.57-.42A9,9,0,0,1,47.57,44a5.82,5.82,0,0,1,2.14.4,4.45,4.45,0,0,1,1.62,1.16,4.81,4.81,0,0,1,1,2A5.91,5.91,0,0,1,52.55,50.16Z"/><path d="M7.78,150.33a6,6,0,0,1-.21,1.6,3.84,3.84,0,0,1-.67,1.34,3.24,3.24,0,0,1-1.2.91,4.3,4.3,0,0,1-1.81.35,4.3,4.3,0,0,1-1.81-.35,3.24,3.24,0,0,1-1.2-.91,3.84,3.84,0,0,1-.67-1.34,6,6,0,0,1-.21-1.6V144H1.22v6.21a5.26,5.26,0,0,0,.14,1.2,2.93,2.93,0,0,0,.43,1,2.29,2.29,0,0,0,.82.72,2.73,2.73,0,0,0,1.28.27,2.73,2.73,0,0,0,1.28-.27A2.29,2.29,0,0,0,6,152.4a2.93,2.93,0,0,0,.43-1,5.26,5.26,0,0,0,.14-1.2V144H7.78Z"/><path d="M10.1,149.06q0-.47,0-.87c0-.27,0-.52,0-.74h1.08c0,.18,0,.36,0,.55s0,.37,0,.57h0a1.61,1.61,0,0,1,.32-.48,2.12,2.12,0,0,1,.51-.42,2.57,2.57,0,0,1,.65-.29,2.85,2.85,0,0,1,.79-.11l.23,0a.86.86,0,0,1,.23.05l-.07,1.15a2.43,2.43,0,0,0-.61-.08,1.71,1.71,0,0,0-1.52.67,3.2,3.2,0,0,0-.48,1.86v3.32H10.1Z"/><path d="M15.17,143.25H16.3v5.19h0a3.22,3.22,0,0,1,1.09-.86,2.93,2.93,0,0,1,1.36-.31,3.83,3.83,0,0,1,1.46.27,3.29,3.29,0,0,1,1.13.75,3.38,3.38,0,0,1,.73,1.14,4,4,0,0,1,0,2.85,3.35,3.35,0,0,1-.72,1.14,3.35,3.35,0,0,1-2.43,1,3.13,3.13,0,0,1-1.61-.4,2.6,2.6,0,0,1-1-1h0v1.21H15.17Zm1.13,7.6a2.91,2.91,0,0,0,.17,1,2.11,2.11,0,0,0,.49.8,2.29,2.29,0,0,0,.76.54,2.6,2.6,0,0,0,2,0,2.29,2.29,0,0,0,.76-.54,2.11,2.11,0,0,0,.49-.8,3,3,0,0,0,0-2,2.11,2.11,0,0,0-.49-.8,2.29,2.29,0,0,0-.76-.54,2.6,2.6,0,0,0-2,0,2.29,2.29,0,0,0-.76.54,2.11,2.11,0,0,0-.49.8A2.9,2.9,0,0,0,16.3,150.85Z"/><path d="M24,148.32a3.17,3.17,0,0,1,1.24-.79,4.38,4.38,0,0,1,1.47-.26,2.88,2.88,0,0,1,2.18.71,3.08,3.08,0,0,1,.67,2.18v2.92c0,.2,0,.4,0,.61s.05.4.08.57h-1.1a2,2,0,0,1-.06-.51c0-.19,0-.36,0-.51h0a2.56,2.56,0,0,1-.9.86,2.5,2.5,0,0,1-1.34.34,4,4,0,0,1-1-.13,2.59,2.59,0,0,1-.8-.39,1.82,1.82,0,0,1-.54-.63,1.79,1.79,0,0,1-.21-.88,1.9,1.9,0,0,1,.44-1.32,2.67,2.67,0,0,1,1.09-.72,5.53,5.53,0,0,1,1.39-.29Q27.4,150,28,150h.44v-.2A1.38,1.38,0,0,0,28,148.7a1.86,1.86,0,0,0-1.24-.38,3.41,3.41,0,0,0-1.09.18,2.64,2.64,0,0,0-.94.56ZM27.33,151a4.1,4.1,0,0,0-1.73.3,1,1,0,0,0-.64,1,1,1,0,0,0,.43.91,2,2,0,0,0,1.07.27,2.06,2.06,0,0,0,.86-.17,1.78,1.78,0,0,0,.62-.44,2,2,0,0,0,.38-.65,2.64,2.64,0,0,0,.15-.8V151Z"/><path d="M31.69,149.06q0-.47,0-.87c0-.27,0-.52,0-.74h1.08c0,.18,0,.36,0,.55s0,.37,0,.57h0a1.87,1.87,0,0,1,.33-.48,2.28,2.28,0,0,1,.5-.42,2.81,2.81,0,0,1,.66-.29,2.85,2.85,0,0,1,.79-.11,2.88,2.88,0,0,1,1.15.21A2.06,2.06,0,0,1,37,148a2.28,2.28,0,0,1,.48.88,4.11,4.11,0,0,1,.15,1.13v4.21H36.49v-4.09a2.12,2.12,0,0,0-.38-1.35,1.38,1.38,0,0,0-1.17-.5,2.19,2.19,0,0,0-1,.19,1.64,1.64,0,0,0-.65.54,2.19,2.19,0,0,0-.38.83,3.9,3.9,0,0,0-.13,1.06v3.32H31.69Z"/><path d="M50,152.78A5.4,5.4,0,0,1,48.66,154a3.32,3.32,0,0,1-1.75.44,3.94,3.94,0,0,1-1.25-.2,3,3,0,0,1-1-.57,2.87,2.87,0,0,1-.72-.93,2.76,2.76,0,0,1-.27-1.24,2.7,2.7,0,0,1,.18-1,2.79,2.79,0,0,1,.5-.83A3.55,3.55,0,0,1,45,149a5.41,5.41,0,0,1,.88-.5,6.82,6.82,0,0,1-.88-1.08,2.38,2.38,0,0,1-.36-1.31,2.25,2.25,0,0,1,.8-1.76,2.77,2.77,0,0,1,.85-.45,3.4,3.4,0,0,1,1-.15,3.21,3.21,0,0,1,1,.15,2.38,2.38,0,0,1,.82.43,1.79,1.79,0,0,1,.56.71,2.26,2.26,0,0,1,.21,1,2,2,0,0,1-.2.88,2.57,2.57,0,0,1-.51.71,4.35,4.35,0,0,1-.7.57c-.26.17-.52.32-.78.46L49.93,151l1.38-2.32h1.38l-2,3.18,2.36,2.41H51.4Zm-3.32-3.53a7.16,7.16,0,0,0-.66.39,3.84,3.84,0,0,0-.58.47,2,2,0,0,0-.42.6,1.64,1.64,0,0,0-.17.74,1.77,1.77,0,0,0,.17.77,1.92,1.92,0,0,0,.43.62,2.11,2.11,0,0,0,1.42.55,2.09,2.09,0,0,0,.72-.12,2.25,2.25,0,0,0,.62-.31,3.79,3.79,0,0,0,.54-.45,6.68,6.68,0,0,0,.5-.55Zm.3-1.32.6-.34a3.19,3.19,0,0,0,.55-.39,2,2,0,0,0,.41-.51,1.35,1.35,0,0,0,.16-.67,1.11,1.11,0,0,0-.38-.89,1.44,1.44,0,0,0-.93-.32,1.55,1.55,0,0,0-1,.37,1.27,1.27,0,0,0-.44,1,1.3,1.3,0,0,0,.23.75,4.85,4.85,0,0,0,.49.61Z"/><path d="M58.61,144h3.06a6.67,6.67,0,0,1,1.36.14,3.47,3.47,0,0,1,1.15.46,2.34,2.34,0,0,1,.8.88,3.18,3.18,0,0,1,0,2.74,2.57,2.57,0,0,1-.82.88,3.54,3.54,0,0,1-1.1.45,5.18,5.18,0,0,1-1.14.13H59.83v4.63H58.61Zm1.22,4.54H61.9a2.46,2.46,0,0,0,1.49-.41,1.72,1.72,0,0,0,0-2.58,2.46,2.46,0,0,0-1.49-.41H59.83Z"/><path d="M66.65,150.85a3.57,3.57,0,0,1,.28-1.45,3.29,3.29,0,0,1,.75-1.13,3.39,3.39,0,0,1,1.16-.74,4,4,0,0,1,1.45-.26,4.07,4.07,0,0,1,1.46.26,3.35,3.35,0,0,1,1.15.74,3.46,3.46,0,0,1,.76,1.13,3.75,3.75,0,0,1,.27,1.45,3.8,3.8,0,0,1-.27,1.46,3.57,3.57,0,0,1-.76,1.13,3.35,3.35,0,0,1-1.15.74,4.07,4.07,0,0,1-1.46.26,4,4,0,0,1-1.45-.26,3.3,3.3,0,0,1-1.91-1.87A3.62,3.62,0,0,1,66.65,150.85Zm1.22,0a2.91,2.91,0,0,0,.17,1,2.11,2.11,0,0,0,.49.8,2.29,2.29,0,0,0,.76.54,2.6,2.6,0,0,0,2,0,2.19,2.19,0,0,0,.76-.54,2.11,2.11,0,0,0,.49-.8,3,3,0,0,0,0-2,2.11,2.11,0,0,0-.49-.8,2.19,2.19,0,0,0-.76-.54,2.6,2.6,0,0,0-2,0,2.29,2.29,0,0,0-.76.54,2.11,2.11,0,0,0-.49.8A2.9,2.9,0,0,0,67.87,150.85Z"/><path d="M75.64,147.45h1.14v1h0a3.32,3.32,0,0,1,1.09-.86,3,3,0,0,1,1.36-.31,3.89,3.89,0,0,1,1.47.27,3.31,3.31,0,0,1,1.85,1.89,4,4,0,0,1,0,2.85,3.35,3.35,0,0,1-.72,1.14,3.28,3.28,0,0,1-1.08.75,3.38,3.38,0,0,1-1.34.27,3.1,3.1,0,0,1-1.61-.4,2.63,2.63,0,0,1-1-1h0v4.53H75.64Zm1.14,3.4a2.91,2.91,0,0,0,.16,1,2.31,2.31,0,0,0,1.26,1.34,2.4,2.4,0,0,0,1,.2,2.48,2.48,0,0,0,1-.2,2.33,2.33,0,0,0,.77-.54,2.22,2.22,0,0,0,.48-.8,3,3,0,0,0,0-2,2.22,2.22,0,0,0-.48-.8,2.33,2.33,0,0,0-.77-.54,2.48,2.48,0,0,0-1-.2,2.4,2.4,0,0,0-1,.2,2.31,2.31,0,0,0-1.26,1.34A2.9,2.9,0,0,0,76.78,150.85Z"/><path d="M90.54,152.65q0,.47,0,.87c0,.27,0,.52,0,.74H89.52c0-.18,0-.37,0-.55s0-.37,0-.57h0a1.61,1.61,0,0,1-.32.48,2.33,2.33,0,0,1-.51.42,2.57,2.57,0,0,1-.65.29,2.9,2.9,0,0,1-.79.11,2.93,2.93,0,0,1-1.16-.21,2.22,2.22,0,0,1-.81-.56,2.4,2.4,0,0,1-.47-.88,4.11,4.11,0,0,1-.15-1.13v-4.21h1.13v4.09a2.19,2.19,0,0,0,.38,1.35,1.41,1.41,0,0,0,1.18.5,2.19,2.19,0,0,0,1-.19,1.8,1.8,0,0,0,.65-.54,2.35,2.35,0,0,0,.38-.83,4.33,4.33,0,0,0,.13-1.06v-3.32h1.13Z"/><path d="M92.8,143.25h1.14v11H92.8Z"/><path d="M96.11,148.32a3.17,3.17,0,0,1,1.24-.79,4.38,4.38,0,0,1,1.47-.26A2.9,2.9,0,0,1,101,148a3.08,3.08,0,0,1,.67,2.18v2.92c0,.2,0,.4,0,.61s0,.4.07.57h-1.09a2,2,0,0,1-.06-.51c0-.19,0-.36,0-.51h0a2.56,2.56,0,0,1-.9.86,2.5,2.5,0,0,1-1.34.34,4,4,0,0,1-1-.13,2.59,2.59,0,0,1-.8-.39,1.82,1.82,0,0,1-.54-.63,1.79,1.79,0,0,1-.21-.88,1.9,1.9,0,0,1,.44-1.32,2.7,2.7,0,0,1,1.08-.72,5.7,5.7,0,0,1,1.4-.29q.75-.06,1.38-.06h.44v-.2a1.38,1.38,0,0,0-.45-1.12,1.87,1.87,0,0,0-1.24-.38,3.37,3.37,0,0,0-1.09.18,2.64,2.64,0,0,0-.94.56ZM99.4,151a4.19,4.19,0,0,0-1.74.3,1.06,1.06,0,0,0-.64,1,1,1,0,0,0,.43.91,2,2,0,0,0,1.07.27,2.11,2.11,0,0,0,.87-.17,1.78,1.78,0,0,0,.62-.44,2,2,0,0,0,.38-.65,2.64,2.64,0,0,0,.15-.8V151Z"/><path d="M107.48,148.41h-2v3.41c0,.22,0,.43,0,.62a1.47,1.47,0,0,0,.11.49.84.84,0,0,0,.31.34,1.17,1.17,0,0,0,.58.12,2.22,2.22,0,0,0,.51-.06,2.67,2.67,0,0,0,.5-.17l0,1a2.47,2.47,0,0,1-.65.19,4,4,0,0,1-.67.06,2.41,2.41,0,0,1-1-.16,1.43,1.43,0,0,1-.57-.45,1.93,1.93,0,0,1-.27-.72,7.06,7.06,0,0,1-.06-1v-3.74h-1.49v-1h1.49v-1.94h1.13v1.94h2Z"/><path d="M108.74,144.78a.8.8,0,0,1,.24-.58.76.76,0,0,1,.59-.25.78.78,0,0,1,.59.25.8.8,0,0,1,.24.58.8.8,0,0,1-.83.83.79.79,0,0,1-.83-.83Zm.26,2.67h1.14v6.81H109Z"/><path d="M112,150.85a3.57,3.57,0,0,1,.28-1.45,3.29,3.29,0,0,1,.75-1.13,3.39,3.39,0,0,1,1.16-.74,4,4,0,0,1,1.45-.26,4.07,4.07,0,0,1,1.46.26,3.35,3.35,0,0,1,1.15.74,3.46,3.46,0,0,1,.76,1.13,3.75,3.75,0,0,1,.28,1.45,3.8,3.8,0,0,1-.28,1.46,3.57,3.57,0,0,1-.76,1.13,3.35,3.35,0,0,1-1.15.74,4.07,4.07,0,0,1-1.46.26,4,4,0,0,1-1.45-.26,3.3,3.3,0,0,1-1.91-1.87A3.62,3.62,0,0,1,112,150.85Zm1.22,0a2.91,2.91,0,0,0,.17,1,2.24,2.24,0,0,0,.49.8,2.29,2.29,0,0,0,.76.54,2.6,2.6,0,0,0,2,0,2.19,2.19,0,0,0,.76-.54,2.11,2.11,0,0,0,.49-.8,3,3,0,0,0,0-2,2.11,2.11,0,0,0-.49-.8,2.19,2.19,0,0,0-.76-.54,2.6,2.6,0,0,0-2,0,2.29,2.29,0,0,0-.76.54,2.24,2.24,0,0,0-.49.8A2.9,2.9,0,0,0,113.22,150.85Z"/><path d="M121.05,149.06q0-.47,0-.87c0-.27,0-.52,0-.74h1.08c0,.18,0,.36,0,.55s0,.37,0,.57h0a1.61,1.61,0,0,1,.32-.48,2.12,2.12,0,0,1,.51-.42,2.57,2.57,0,0,1,.65-.29,2.85,2.85,0,0,1,.79-.11,3,3,0,0,1,1.16.21,2.1,2.1,0,0,1,.8.56,2.28,2.28,0,0,1,.48.88,4.11,4.11,0,0,1,.15,1.13v4.21h-1.14v-4.09a2.19,2.19,0,0,0-.37-1.35,1.41,1.41,0,0,0-1.18-.5,2.19,2.19,0,0,0-1,.19,1.72,1.72,0,0,0-.65.54,2.35,2.35,0,0,0-.38.83,4.33,4.33,0,0,0-.13,1.06v3.32h-1.13Z"/><path d="M133.21,144h4a5.25,5.25,0,0,1,1.08.12,4.82,4.82,0,0,1,1.13.37,5.31,5.31,0,0,1,1.08.66,4.49,4.49,0,0,1,.91,1,5.27,5.27,0,0,1,.63,1.33,5.92,5.92,0,0,1,.23,1.7,5.85,5.85,0,0,1-.23,1.69,5.11,5.11,0,0,1-.63,1.33,4.49,4.49,0,0,1-.91,1,5.16,5.16,0,0,1-2.21,1,5.21,5.21,0,0,1-1.08.11h-4Zm1.23,9.18h2.33a5.37,5.37,0,0,0,1.64-.24,3.35,3.35,0,0,0,1.31-.72,3.44,3.44,0,0,0,.88-1.24,5.34,5.34,0,0,0,0-3.64,3.48,3.48,0,0,0-.88-1.25,3.35,3.35,0,0,0-1.31-.72,5.37,5.37,0,0,0-1.64-.23h-2.33Z"/><path d="M150.08,153a3.49,3.49,0,0,1-1.34,1.1,4.39,4.39,0,0,1-1.69.31,3.53,3.53,0,0,1-1.44-.29,3.28,3.28,0,0,1-1.09-.76,3.42,3.42,0,0,1-.68-1.14,4.16,4.16,0,0,1,0-2.84,3.33,3.33,0,0,1,.73-1.14,3.27,3.27,0,0,1,1.11-.74,3.71,3.71,0,0,1,1.4-.26,3.51,3.51,0,0,1,1.31.24,2.78,2.78,0,0,1,1,.7,3.22,3.22,0,0,1,.67,1.12,4.7,4.7,0,0,1,.23,1.51v.36h-5.51a2.36,2.36,0,0,0,.21.84,2.29,2.29,0,0,0,.48.7,2.15,2.15,0,0,0,1.54.65,2.75,2.75,0,0,0,1.25-.26,2.89,2.89,0,0,0,.92-.77Zm-1-2.79a2,2,0,0,0-.57-1.4,2,2,0,0,0-1.49-.52,2.09,2.09,0,0,0-2.23,1.92Z"/><path d="M155.2,154.26h-1.26l-2.78-6.81h1.33l2.12,5.34h0l2-5.34h1.22Z"/><path d="M165.2,153a3.42,3.42,0,0,1-1.34,1.1,4.39,4.39,0,0,1-1.69.31,3.53,3.53,0,0,1-1.44-.29,3.14,3.14,0,0,1-1.08-.76,3.29,3.29,0,0,1-.69-1.14,4.16,4.16,0,0,1,0-2.84,3.33,3.33,0,0,1,.73-1.14,3.27,3.27,0,0,1,1.11-.74,3.75,3.75,0,0,1,1.4-.26,3.51,3.51,0,0,1,1.31.24,2.82,2.82,0,0,1,1,.7,3.35,3.35,0,0,1,.66,1.12,4.7,4.7,0,0,1,.23,1.51v.36h-5.51a2.18,2.18,0,0,0,.22.84,2.27,2.27,0,0,0,.47.7,2,2,0,0,0,.68.47,2.07,2.07,0,0,0,.86.18,2.8,2.8,0,0,0,1.26-.26,2.86,2.86,0,0,0,.91-.77Zm-1-2.79a2,2,0,0,0-.57-1.4,2,2,0,0,0-1.49-.52,2.2,2.2,0,0,0-1.53.52,2.27,2.27,0,0,0-.7,1.4Z"/><path d="M167.32,143.25h1.13v11h-1.13Z"/><path d="M170.32,150.85a3.75,3.75,0,0,1,.27-1.45,3.38,3.38,0,0,1,1.91-1.87,4.23,4.23,0,0,1,2.92,0,3.45,3.45,0,0,1,1.15.74,3.29,3.29,0,0,1,.75,1.13,3.57,3.57,0,0,1,.28,1.45,3.62,3.62,0,0,1-.28,1.46,3.38,3.38,0,0,1-.75,1.13,3.45,3.45,0,0,1-1.15.74,4.23,4.23,0,0,1-2.92,0,3.45,3.45,0,0,1-1.15-.74,3.57,3.57,0,0,1-.76-1.13A3.8,3.8,0,0,1,170.32,150.85Zm1.22,0a2.91,2.91,0,0,0,.17,1,2.11,2.11,0,0,0,.49.8,2.19,2.19,0,0,0,.76.54,2.6,2.6,0,0,0,2,0,2.29,2.29,0,0,0,.76-.54,2.24,2.24,0,0,0,.49-.8,3,3,0,0,0,0-2,2.24,2.24,0,0,0-.49-.8,2.29,2.29,0,0,0-.76-.54,2.6,2.6,0,0,0-2,0,2.19,2.19,0,0,0-.76.54,2.11,2.11,0,0,0-.49.8A2.9,2.9,0,0,0,171.54,150.85Z"/><path d="M179.31,147.45h1.13v1h0a3.22,3.22,0,0,1,1.09-.86,2.93,2.93,0,0,1,1.36-.31,3.83,3.83,0,0,1,1.46.27,3.29,3.29,0,0,1,1.13.75,3.38,3.38,0,0,1,.73,1.14,4,4,0,0,1,0,2.85,3.51,3.51,0,0,1-.72,1.14,3.35,3.35,0,0,1-2.43,1,3.13,3.13,0,0,1-1.61-.4,2.6,2.6,0,0,1-1-1h0v4.53h-1.13Zm1.13,3.4a2.91,2.91,0,0,0,.17,1,2.11,2.11,0,0,0,.49.8,2.29,2.29,0,0,0,.76.54,2.6,2.6,0,0,0,2,0,2.29,2.29,0,0,0,.76-.54,2.11,2.11,0,0,0,.49-.8,3,3,0,0,0,0-2,2.11,2.11,0,0,0-.49-.8,2.29,2.29,0,0,0-.76-.54,2.6,2.6,0,0,0-2,0,2.29,2.29,0,0,0-.76.54,2.11,2.11,0,0,0-.49.8A2.9,2.9,0,0,0,180.44,150.85Z"/><path d="M188.26,149.06c0-.31,0-.6,0-.87s0-.52,0-.74h1.07c0,.18,0,.36,0,.55s0,.37,0,.57h0a1.87,1.87,0,0,1,.33-.48,2.28,2.28,0,0,1,.5-.42,2.76,2.76,0,0,1,1.45-.4,2.74,2.74,0,0,1,.92.14,2.26,2.26,0,0,1,.62.33,2.2,2.2,0,0,1,.39.43c.09.15.16.28.22.4a3.16,3.16,0,0,1,.88-1,2.18,2.18,0,0,1,1.28-.34,3.35,3.35,0,0,1,1.22.2,1.89,1.89,0,0,1,.8.57,2.11,2.11,0,0,1,.44.9,4.82,4.82,0,0,1,.13,1.19v4.13h-1.13v-4.08a3.08,3.08,0,0,0-.08-.68,1.61,1.61,0,0,0-.26-.6,1.51,1.51,0,0,0-.51-.42,1.79,1.79,0,0,0-.82-.16,1.57,1.57,0,0,0-.68.15,1.69,1.69,0,0,0-.56.4,1.94,1.94,0,0,0-.38.64,2.35,2.35,0,0,0-.14.82v3.93h-1.14V150.4a3.2,3.2,0,0,0-.3-1.61,1.13,1.13,0,0,0-1-.47,2.15,2.15,0,0,0-.95.19,1.75,1.75,0,0,0-.66.54,2.54,2.54,0,0,0-.38.83,4.35,4.35,0,0,0-.12,1.06v3.32h-1.14Z"/><path d="M206.77,153a3.57,3.57,0,0,1-1.34,1.1,4.43,4.43,0,0,1-1.69.31,3.54,3.54,0,0,1-1.45-.29,3.24,3.24,0,0,1-1.08-.76,3.29,3.29,0,0,1-.69-1.14,4,4,0,0,1-.24-1.4,3.77,3.77,0,0,1,.27-1.44,3.17,3.17,0,0,1,.72-1.14,3.27,3.27,0,0,1,1.11-.74,3.79,3.79,0,0,1,1.4-.26,3.47,3.47,0,0,1,1.31.24,2.82,2.82,0,0,1,1,.7,3.2,3.2,0,0,1,.66,1.12,4.44,4.44,0,0,1,.23,1.51v.36h-5.5a2.36,2.36,0,0,0,.21.84,2.46,2.46,0,0,0,.47.7,2.06,2.06,0,0,0,.69.47,2,2,0,0,0,.86.18,2.78,2.78,0,0,0,1.25-.26,3,3,0,0,0,.92-.77Zm-1-2.79a2,2,0,0,0-.57-1.4,2,2,0,0,0-1.48-.52,2.09,2.09,0,0,0-2.23,1.92Z"/><path d="M208.78,149.06q0-.47,0-.87c0-.27,0-.52,0-.74h1.08c0,.18,0,.36,0,.55s0,.37,0,.57h0a1.61,1.61,0,0,1,.32-.48,2.12,2.12,0,0,1,.51-.42,2.57,2.57,0,0,1,.65-.29,2.85,2.85,0,0,1,.79-.11,3,3,0,0,1,1.16.21,2.1,2.1,0,0,1,.8.56,2.28,2.28,0,0,1,.48.88,4.11,4.11,0,0,1,.15,1.13v4.21h-1.14v-4.09a2.19,2.19,0,0,0-.37-1.35,1.41,1.41,0,0,0-1.18-.5,2.19,2.19,0,0,0-1,.19,1.72,1.72,0,0,0-.65.54,2.35,2.35,0,0,0-.38.83,4.33,4.33,0,0,0-.13,1.06v3.32h-1.13Z"/><path d="M220.61,148.41h-2v3.41c0,.22,0,.43,0,.62a1.26,1.26,0,0,0,.12.49.89.89,0,0,0,.3.34,1.18,1.18,0,0,0,.59.12,2.35,2.35,0,0,0,.51-.06,2.58,2.58,0,0,0,.49-.17l0,1a2.51,2.51,0,0,1-.64.19,4.18,4.18,0,0,1-.68.06,2.44,2.44,0,0,1-1-.16,1.43,1.43,0,0,1-.57-.45,1.76,1.76,0,0,1-.26-.72,5.69,5.69,0,0,1-.07-1v-3.74H216v-1h1.49v-1.94h1.14v1.94h2Z"/></svg>